<svg xmlns="http://www.w3.org/2000/svg" width="512" height="512" viewBox="0 0 512 512">
<g>
<path d="M 42.27 510.56 C22.52,505.78 5.18,487.94 1.10,468.20 C-0.45,460.71 -0.45,51.29 1.10,43.80 C5.29,23.53 23.53,5.29 43.80,1.10 C47.55,0.32 109.79,0.00 256.30,0.01 C458.74,0.03 470.02,-0.29 478.78,4.25 C479.90,4.83 480.97,5.49 482.41,6.24 C491.50,11.01 501.90,21.81 506.25,31.00 C508.21,35.12 510.30,40.88 510.90,43.80 C512.45,51.29 512.45,460.71 510.90,468.20 C506.83,487.90 489.40,505.87 469.91,510.46 C464.30,511.78 437.69,511.96 255.50,511.90 C91.24,511.84 46.40,511.56 42.27,510.56 ZM 193.21 446.45 C199.87,448.42 204.38,446.72 206.60,441.41 C208.10,437.83 208.50,419.97 207.36,407.89 L 206.74 401.27 L 202.62 402.28 C200.35,402.83 193.55,403.33 187.50,403.37 C174.36,403.47 165.71,401.20 156.44,395.21 C148.62,390.15 145.80,386.64 139.96,374.73 C133.85,362.24 128.57,355.39 120.94,350.04 C108.92,341.61 109.28,337.46 121.97,338.22 C134.08,338.94 142.04,344.23 150.99,357.48 C156.96,366.33 163.56,372.43 170.82,375.84 C175.85,378.19 177.65,378.49 186.50,378.41 C193.82,378.34 197.98,377.78 202.00,376.31 L 207.50 374.31 L 209.20 368.07 C211.22,360.60 214.25,354.49 217.75,350.78 C218.86,349.60 219.59,348.87 219.46,348.33 C219.26,347.42 216.65,347.05 209.50,345.98 C184.79,342.28 162.39,330.98 150.50,316.20 C140.51,303.81 133.98,285.94 131.87,265.27 C129.32,240.31 133.91,220.99 146.39,204.20 C150.85,198.19 151.02,197.74 150.01,194.20 C146.48,181.84 146.88,166.08 151.07,152.52 L 153.08 146.00 L 158.31 146.00 C168.77,146.00 186.50,152.71 201.25,162.24 C207.40,166.21 207.48,166.23 212.47,165.06 C239.07,158.78 268.87,158.43 296.06,164.06 L 305.97 166.11 L 310.47 163.02 C323.37,154.15 344.34,146.00 354.28,146.00 C358.79,146.00 359.19,146.21 360.48,149.30 C361.24,151.11 362.62,156.38 363.56,161.01 C365.54,170.75 365.11,186.91 362.70,193.54 L 361.24 197.58 L 365.77 203.54 C371.58,211.16 377.34,223.51 379.39,232.70 C380.41,237.27 381.00,244.61 381.00,252.82 C381.00,307.23 354.62,338.30 301.77,346.11 C297.22,346.79 293.31,347.49 293.08,347.67 C292.85,347.86 293.60,349.02 294.75,350.25 C297.95,353.68 301.78,361.97 303.46,369.10 C304.64,374.11 304.97,382.56 304.99,408.03 C305.00,435.86 304.97,442.05 308.02,444.72 C308.93,445.51 310.11,445.98 311.65,446.63 C314.75,447.92 315.67,447.82 322.77,445.47 C333.24,441.99 352.64,432.32 363.00,425.43 C412.65,392.40 443.68,342.52 450.95,284.03 C452.49,271.64 452.23,246.74 450.44,233.85 C441.41,169.11 400.30,112.59 341.84,84.52 C244.54,37.82 128.18,77.88 80.49,174.50 C47.90,240.52 55.19,318.97 99.44,378.51 C107.03,388.71 127.15,408.90 137.50,416.68 C153.92,429.03 178.26,442.04 193.21,446.45 ZM 199.25 385.34 C202.57,386.68 206.00,385.49 206.00,383.00 C206.00,380.68 203.62,379.81 200.49,381.00 C197.86,382.00 197.15,384.49 199.25,385.34 ZM 184.20 386.80 C186.45,389.05 191.00,387.81 191.00,384.96 C191.00,382.65 187.70,381.55 185.04,382.98 C182.70,384.23 182.51,385.11 184.20,386.80 ZM 155.53 376.04 C158.10,378.87 161.00,378.60 161.00,375.54 C161.00,373.21 158.58,371.00 156.03,371.00 C154.03,371.00 153.73,374.04 155.53,376.04 ZM 168.86 384.07 C171.51,386.24 171.94,386.33 173.85,385.11 C176.17,383.65 174.76,380.53 171.62,380.17 C167.36,379.68 165.94,381.68 168.86,384.07 ZM 146.68 365.20 C148.61,367.33 150.35,367.09 150.83,364.62 C151.27,362.37 149.24,360.00 146.88,360.00 C144.53,360.00 144.43,362.71 146.68,365.20 ZM 138.50 354.00 C140.64,356.36 142.50,356.14 142.50,353.53 C142.50,351.00 139.43,349.17 137.85,350.75 C136.91,351.69 137.06,352.40 138.50,354.00 ZM 130.01 345.51 C131.39,347.17 133.59,347.47 134.43,346.11 C135.27,344.75 132.23,342.70 130.40,343.40 C129.08,343.91 129.01,344.31 130.01,345.51 Z" fill="rgba(0,0,0,1)"/>
<path d="M 193.21 446.45 C178.26,442.04 153.92,429.03 137.50,416.68 C127.15,408.90 107.03,388.71 99.44,378.51 C55.19,318.97 47.90,240.52 80.49,174.50 C128.18,77.88 244.54,37.82 341.84,84.52 C400.30,112.59 441.41,169.11 450.44,233.85 C452.23,246.74 452.49,271.64 450.95,284.03 C443.68,342.52 412.65,392.40 363.00,425.43 C352.64,432.32 333.24,441.99 322.77,445.47 C315.67,447.82 314.75,447.92 311.65,446.63 C304.95,443.83 305.00,444.13 304.99,408.03 C304.97,382.56 304.64,374.11 303.46,369.10 C301.78,361.97 297.95,353.68 294.75,350.25 C293.60,349.02 292.85,347.86 293.08,347.67 C293.31,347.49 297.22,346.79 301.77,346.11 C354.62,338.30 381.00,307.23 381.00,252.82 C381.00,244.61 380.41,237.27 379.39,232.70 C377.34,223.51 371.58,211.16 365.77,203.54 L 361.24 197.58 L 362.70 193.54 C365.11,186.91 365.54,170.75 363.56,161.01 C362.62,156.38 361.24,151.11 360.48,149.30 C359.19,146.21 358.79,146.00 354.28,146.00 C344.34,146.00 323.37,154.15 310.47,163.02 L 305.97 166.11 L 296.06 164.06 C268.87,158.43 239.07,158.78 212.47,165.06 C207.48,166.23 207.40,166.21 201.25,162.24 C186.50,152.71 168.77,146.00 158.31,146.00 L 153.08 146.00 L 151.07 152.52 C146.88,166.08 146.48,181.84 150.01,194.20 C151.02,197.74 150.85,198.19 146.39,204.20 C133.91,220.99 129.32,240.31 131.87,265.27 C133.98,285.94 140.51,303.81 150.50,316.20 C162.39,330.98 184.79,342.28 209.50,345.98 C220.89,347.68 220.75,347.60 217.75,350.78 C214.25,354.49 211.22,360.60 209.20,368.07 L 207.50 374.31 L 202.00 376.31 C197.98,377.78 193.82,378.34 186.50,378.41 C177.65,378.49 175.85,378.19 170.82,375.84 C163.56,372.43 156.96,366.33 150.99,357.48 C142.04,344.23 134.08,338.94 121.97,338.22 C109.28,337.46 108.92,341.61 120.94,350.04 C128.57,355.39 133.85,362.24 139.96,374.73 C145.80,386.64 148.62,390.15 156.44,395.21 C165.71,401.20 174.36,403.47 187.50,403.37 C193.55,403.33 200.35,402.83 202.62,402.28 L 206.74 401.27 L 207.36 407.89 C208.50,419.97 208.10,437.83 206.60,441.41 C204.38,446.72 199.87,448.42 193.21,446.45 ZM 184.20 386.80 C182.51,385.11 182.70,384.23 185.04,382.98 C187.70,381.55 191.00,382.65 191.00,384.96 C191.00,387.81 186.45,389.05 184.20,386.80 ZM 168.86 384.07 C165.94,381.68 167.36,379.68 171.62,380.17 C174.76,380.53 176.17,383.65 173.85,385.11 C171.94,386.33 171.51,386.24 168.86,384.07 ZM 199.25 385.34 C197.15,384.49 197.86,382.00 200.49,381.00 C203.62,379.81 206.00,380.68 206.00,383.00 C206.00,385.49 202.57,386.68 199.25,385.34 ZM 155.53 376.04 C153.73,374.04 154.03,371.00 156.03,371.00 C158.58,371.00 161.00,373.21 161.00,375.54 C161.00,378.60 158.10,378.87 155.53,376.04 ZM 146.68 365.20 C144.43,362.71 144.53,360.00 146.88,360.00 C149.24,360.00 151.27,362.37 150.83,364.62 C150.35,367.09 148.61,367.33 146.68,365.20 ZM 138.50 354.00 C137.06,352.40 136.91,351.69 137.85,350.75 C139.43,349.17 142.50,351.00 142.50,353.53 C142.50,356.14 140.64,356.36 138.50,354.00 ZM 130.01 345.51 C129.01,344.31 129.08,343.91 130.40,343.40 C132.23,342.70 135.27,344.75 134.43,346.11 C133.59,347.47 131.39,347.17 130.01,345.51 Z" fill="rgba(254,254,254,1)"/>
</g>
</svg>